<svg width="42" height="39" viewBox="0 0 42 39" fill="none" xmlns="http://www.w3.org/2000/svg">
<path d="M21 17.6842C18.526 17.6842 16.407 16.8175 14.643 15.0842C12.879 13.3508 11.998 11.2697 12 8.84065C12.002 6.41163 12.883 4.32849 14.643 2.59123C16.403 0.853973 18.522 -0.00974324 21 8.28977e-05C23.478 0.00990903 25.597 0.874608 27.357 2.59418C29.117 4.31375 29.998 6.39689 30 8.8436C30.002 11.2903 29.121 13.3715 27.357 15.0871C25.593 16.8028 23.474 17.6665 21 17.6842ZM0 35.9401V34.1479C0 32.9314 0.36 31.7935 1.08 30.7343C1.802 29.673 2.772 28.8496 3.99 28.264C6.822 26.9296 9.656 25.9293 12.492 25.2631C15.326 24.5949 18.162 24.2608 21 24.2608C23.838 24.2608 26.675 24.5949 29.511 25.2631C32.347 25.9312 35.179 26.9315 38.007 28.264C39.227 28.8496 40.197 29.673 40.917 30.7343C41.639 31.7935 42 32.9314 42 34.1479V35.9401C42 36.8048 41.701 37.532 41.103 38.1215C40.505 38.7072 39.765 39 38.883 39H3.12C2.238 39 1.498 38.7062 0.900001 38.1186C0.302001 37.531 0.002 36.8068 0 35.9401ZM3 36.0522H39V34.1449C39 33.4925 38.785 32.8783 38.355 32.3025C37.927 31.7287 37.334 31.2433 36.576 30.8463C34.108 29.6711 31.562 28.771 28.938 28.1461C26.314 27.5211 23.668 27.2086 21 27.2086C18.332 27.2086 15.686 27.5211 13.062 28.1461C10.438 28.771 7.892 29.6711 5.424 30.8463C4.664 31.2433 4.071 31.7287 3.645 32.3025C3.215 32.8783 3 33.4934 3 34.1479V36.0522ZM21 14.7363C22.65 14.7363 24.063 14.1586 25.239 13.003C26.415 11.8475 27.002 10.459 27 8.83771C26.998 7.21639 26.411 5.82894 25.239 4.67536C24.067 3.52177 22.654 2.94399 21 2.94203C19.346 2.94006 17.934 3.51784 16.764 4.67536C15.594 5.83288 15.006 7.22032 15 8.83771C14.994 10.4551 15.582 11.8435 16.764 13.003C17.946 14.1625 19.358 14.7393 21 14.7334" fill="#EC4613"/>
</svg>
